<svg width="36" height="36" viewBox="0 0 36 36" fill="none" xmlns="http://www.w3.org/2000/svg">
  <rect width="36" height="36" rx="8" fill="#0891B2"/>
  <path d="M10 18.667C10 13.144 14.477 8.667 20 8.667C25.523 8.667 30 13.144 30 18.667V20.667C30 21.755 29.122 22.667 28 22.667C27.462 22.667 26.968 22.434 26.618 22.056C26.166 22.445 25.599 22.667 25 22.667C24.054 22.667 23.221 22.133 22.816 21.333C22.412 22.133 21.579 22.667 20.667 22.667C19.756 22.667 18.922 22.133 18.518 21.333C18.113 22.133 17.279 22.667 16.333 22.667C15.387 22.667 14.554 22.133 14.15 21.333C13.744 22.133 12.911 22.667 12 22.667C10.895 22.667 10 21.771 10 20.667V18.667ZM22 14.667V16.667H24V18.667H22V20.667H20V18.667H18V16.667H20V14.667H22Z" stroke="white" stroke-width="2" stroke-linecap="round" stroke-linejoin="round"/>
</svg>